<svg id="Layer_2" data-name="Layer 2" xmlns="http://www.w3.org/2000/svg" viewBox="0 0 340 160">
  <path d="M209.71,86.39l23.51-11.51a12.54,12.54,0,0,1,13.35,1.47l14.88,11.9a12.53,12.53,0,0,0,15.3.28l5.58-4.14a12.54,12.54,0,0,1,19.93,8.71h0a12.59,12.59,0,0,1-1.38,7.23l-11.75,22.18a12.48,12.48,0,0,1-4.49,4.8L265.79,139a12.51,12.51,0,0,1-8,1.8l-23.92-2.63a12.61,12.61,0,0,1-7.21-3.32l-11.08-10.4A12.7,12.7,0,0,1,213,121l-9-17.61A12.55,12.55,0,0,1,209.71,86.39Z" fill="#fcce72" stroke="#fcce72" stroke-miterlimit="10" stroke-width="3"/>
  <g id="Icon_ionic-ios-switch" data-name="Icon ionic-ios-switch">
    <path id="Path_23" data-name="Path 23" d="M90.11,154.93H251.69c38.62,0,69.92-30.58,69.92-69.2A69.91,69.91,0,0,0,251.7,15.81H90.11A69.91,69.91,0,0,0,20.19,85.72h0C20.19,124.35,51.49,154.93,90.11,154.93ZM252.05,39a46.37,46.37,0,1,1-46.37,46.37A46.37,46.37,0,0,1,252.05,39Z" fill="#849478"/>
  </g>
</svg>
