<svg id="Layer_2" data-name="Layer 2" xmlns="http://www.w3.org/2000/svg" viewBox="0 0 340 160">
  <path d="M42.83,79.31,66.34,67.79a12.56,12.56,0,0,1,13.35,1.47L94.57,81.17a12.55,12.55,0,0,0,15.3.28l5.58-4.14A12.53,12.53,0,0,1,135.38,86h0A12.52,12.52,0,0,1,134,93.25l-11.74,22.18a12.63,12.63,0,0,1-4.49,4.8L98.91,131.88a12.5,12.5,0,0,1-8,1.79L67,131a12.52,12.52,0,0,1-7.2-3.32l-11.09-10.4a12.55,12.55,0,0,1-2.59-3.45l-9-17.61A12.53,12.53,0,0,1,42.83,79.31Z" fill="#3c100a" stroke="#3c100a" stroke-miterlimit="10" stroke-width="3"/>
  <path id="Path_33" data-name="Path 33" d="M247.87,12.5H86.13a69.5,69.5,0,1,0,0,139H247.87a69.5,69.5,0,1,0,0-139ZM85.77,128.33A46.33,46.33,0,1,1,132.19,82,46.37,46.37,0,0,1,85.77,128.33Z" fill="#fcce72"/>
</svg>
