<svg id="Layer_2" data-name="Layer 2" xmlns="http://www.w3.org/2000/svg" viewBox="0 0 460 160">
  <path d="M48.6,75.13l1.9-1.63,13,3,124-10,11.31-8.23A81.16,81.16,0,0,1,222.1,46.52l6.4-2h213a33.7,33.7,0,0,1,15,28v57.16a30.19,30.19,0,0,1-13,24.81H233.66a28,28,0,0,1-13.44-3.43L193.5,136.5l-132-15-9,2h0a13.17,13.17,0,0,1-9-12.49V86.22A14.58,14.58,0,0,1,48.6,75.13Z" fill="none" stroke="#849478" stroke-miterlimit="10" stroke-width="3"/>
  <text transform="translate(215.31 131.24)" font-size="95" fill="#849478" font-family="Vibes-Regular, Vibes">FooBar</text>
  <circle cx="39.07" cy="62.81" r="5.19" fill="none" stroke="#849478" stroke-miterlimit="10" stroke-width="3"/>
  <circle cx="23.36" cy="49.77" r="7.87" fill="none" stroke="#849478" stroke-miterlimit="10" stroke-width="3"/>
  <circle cx="33.42" cy="27.88" r="6.77" fill="none" stroke="#849478" stroke-miterlimit="10" stroke-width="3"/>
</svg>
